{"title":"Mr. X (2015) Pre DvD Rip - XviD - [1CD] - IcTv LotterY Exclusive","uid":11821766,"size":738762326,"categoryP":"video","categoryS":"other","magnet":"?xt=urn:btih:b7eb792a992c0adca28a9d8e724b11079677d653&amp;dn=Mr.+X+%282015%29+Pre+DvD+Rip+-+XviD+-+%5B1CD%5D+-+IcTv+LotterY+Exclusive&amp;tr=udp%3A%2F%2Ftracker.openbittorrent.com%3A80&amp;tr=udp%3A%2F%2Fopen.demonii.com%3A1337&amp;tr=udp%3A%2F%2Ftracker.coppersurfer.tk%3A6969&amp;tr=udp%3A%2F%2Fexodus.desync.com%3A6969","seeders":2,"leechers":2,"uploader":"SS132203","files":4,"time":1429285032,"description":"Mr. X (2015) Pre DvD Rip - XviD - [1CD] - IcTv LotterY Exclusive -={SPARROW}=-\n &lt;a href=&quot;\nhttp://imgsparrow.co/image/9R&quot; rel=&quot;nofollow&quot; target=&quot;_NEW&quot;&gt;\nhttp://imgsparrow.co/image/9R&lt;/a&gt;\n &lt;a href=&quot;\nhttp://imgsparrow.co/image/9b&quot; rel=&quot;nofollow&quot; target=&quot;_NEW&quot;&gt;\nhttp://imgsparrow.co/image/9b&lt;/a&gt;\n\nMovie Info\nBanner : Vishesh Films\nYear : 2015\nCast : Emraan Hashmi.Amyra Dastur.Nora Fatehi\nVideo: X264\nAudio : AC 3\nGenre : Thriller, 3D, Social\nSubtitles : None\nResolution : 640 x 272\nRuntime : 2hr 02min xx\nSource : Team IcTv\n\nFormat                      : AVI\nFormat/Info                 : Audio Video Interleave\nFile size                   : 694 MiB\nDuration                    : 2h 2mn\nOverall bit rate            : 794 Kbps\n\nVideo\nCodec ID                    : XVID\nCodec ID/Hint               : XviD\nDuration                    : 2h 2mn\nBit rate                    : 660 Kbps\nWidth                       : 640 pixels\nHeight                      : 272 pixels\nDisplay aspect ratio        : 2.35:1\nFrame rate                  : 25.000 fps\nColor space                 : YUV\nChroma subsampling          : 4:2:0\nBit depth                   : 8 bits\nScan type                   : Progressive\nCompression mode            : Lossy\nBits/(Pixel*Frame)          : 0.152\nStream size                 : 577 MiB (83%)\n\nAudio\nID                          : 1\nFormat                      : MPEG Audio\nFormat version              : Version 1\nFormat profile              : Layer 3\nMode                        : Joint stereo\nMode extension              : MS Stereo\nCodec ID                    : 55\nCodec ID/Hint               : MP3\nDuration                    : 2h 2mn\nBit rate mode               : Constant\nBit rate                    : 128 Kbps\nChannel(s)                  : 2 channels\nSampling rate               : 48.0 KHz\nCompression mode            : Lossy\nStream size                 : 112 MiB (16%)\n &lt;a href=&quot;\nhttp://imgsparrow.co/image/9h&quot; rel=&quot;nofollow&quot; target=&quot;_NEW&quot;&gt;\nhttp://imgsparrow.co/image/9h&lt;/a&gt;\n  &lt;a href=&quot;\nhttp://imgsparrow.co/image/9v&quot; rel=&quot;nofollow&quot; target=&quot;_NEW&quot;&gt;\nhttp://imgsparrow.co/image/9v&lt;/a&gt;  &lt;a href=&quot;\nhttp://imgsparrow.co/image/9x&quot; rel=&quot;nofollow&quot; target=&quot;_NEW&quot;&gt;\nhttp://imgsparrow.co/image/9x&lt;/a&gt;  &lt;a href=&quot;\nhttp://imgsparrow.co/image/9C&quot; rel=&quot;nofollow&quot; target=&quot;_NEW&quot;&gt;\nhttp://imgsparrow.co/image/9C&lt;/a&gt;  &lt;a href=&quot;\nhttp://imgsparrow.co/image/91&quot; rel=&quot;nofollow&quot; target=&quot;_NEW&quot;&gt;\nhttp://imgsparrow.co/image/91&lt;/a&gt;  &lt;a href=&quot;\nhttp://imgsparrow.co/image/L6&quot; rel=&quot;nofollow&quot; target=&quot;_NEW&quot;&gt;\nhttp://imgsparrow.co/image/L6&lt;/a&gt;  &lt;a href=&quot;\nhttp://imgsparrow.co/image/L8&quot; rel=&quot;nofollow&quot; target=&quot;_NEW&quot;&gt;\nhttp://imgsparrow.co/image/L8&lt;/a&gt;  &lt;a href=&quot;\nhttp://imgsparrow.co/image/L9&quot; rel=&quot;nofollow&quot; target=&quot;_NEW&quot;&gt;\nhttp://imgsparrow.co/image/L9&lt;/a&gt;  &lt;a href=&quot;\nhttp://imgsparrow.co/image/LL&quot; rel=&quot;nofollow&quot; target=&quot;_NEW&quot;&gt;\nhttp://imgsparrow.co/image/LL&lt;/a&gt;  &lt;a href=&quot;\nhttp://imgsparrow.co/image/LN&quot; rel=&quot;nofollow&quot; target=&quot;_NEW&quot;&gt;\nhttp://imgsparrow.co/image/LN&lt;/a&gt;  &lt;a href=&quot;\nhttp://imgsparrow.co/image/Lt&quot; rel=&quot;nofollow&quot; target=&quot;_NEW&quot;&gt;\nhttp://imgsparrow.co/image/Lt&lt;/a&gt;\n\nSample Within Torrent\nAll Credit Goes To Intellect Clever &amp; IcTv\n  &lt;a href=&quot;\nhttp://imgsparrow.org/images/2015/02/22/SPARROW.gif&quot; rel=&quot;nofollow&quot; target=&quot;_NEW&quot;&gt;\nhttp://imgsparrow.org/images/2015/02/22/SPARROW.gif&lt;/a&gt;","torrent":{"xt":"urn:btih:b7eb792a992c0adca28a9d8e724b11079677d653","amp;dn":"Mr.+X+%282015%29+Pre+DvD+Rip+-+XviD+-+%5B1CD%5D+-+IcTv+LotterY+Exclusive","amp;tr":["udp%3A%2F%2Ftracker.openbittorrent.com%3A80","udp%3A%2F%2Fopen.demonii.com%3A1337","udp%3A%2F%2Ftracker.coppersurfer.tk%3A6969","udp%3A%2F%2Fexodus.desync.com%3A6969"],"infoHash":"b7eb792a992c0adca28a9d8e724b11079677d653","infoHashBuffer":{"type":"Buffer","data":[183,235,121,42,153,44,10,220,162,138,157,142,114,75,17,7,150,119,214,83]},"announce":[],"urlList":[]}}